<svg width="24" height="24" viewBox="0 0 24 24" fill="none" xmlns="http://www.w3.org/2000/svg">
<path d="M21.6398 3.6398L20.3598 2.3598C20.2473 2.24612 20.1133 2.15587 19.9657 2.09428C19.8181 2.03269 19.6598 2.00098 19.4998 2.00098C19.3399 2.00098 19.1815 2.03269 19.0339 2.09428C18.8863 2.15587 18.7523 2.24612 18.6398 2.3598L2.3598 18.6398C2.24612 18.7523 2.15587 18.8863 2.09428 19.0339C2.03269 19.1815 2.00098 19.3399 2.00098 19.4998C2.00098 19.6598 2.03269 19.8181 2.09428 19.9657C2.15587 20.1133 2.24612 20.2473 2.3598 20.3598L3.6398 21.6398C3.75162 21.7547 3.88534 21.846 4.03305 21.9084C4.18076 21.9708 4.33947 22.0029 4.4998 22.0029C4.66014 22.0029 4.81885 21.9708 4.96656 21.9084C5.11427 21.846 5.24798 21.7547 5.3598 21.6398L21.6398 5.3598C21.7547 5.24798 21.846 5.11427 21.9084 4.96656C21.9708 4.81885 22.0029 4.66014 22.0029 4.4998C22.0029 4.33947 21.9708 4.18076 21.9084 4.03305C21.846 3.88534 21.7547 3.75162 21.6398 3.6398Z" stroke="black" stroke-width="2" stroke-linecap="round" stroke-linejoin="round"/>
<path d="M14 7L17 10" stroke="black" stroke-width="2" stroke-linecap="round" stroke-linejoin="round"/>
<path d="M19 14V18" stroke="black" stroke-width="2" stroke-linecap="round" stroke-linejoin="round"/>
<path d="M10 2V4" stroke="black" stroke-width="2" stroke-linecap="round" stroke-linejoin="round"/>
<path d="M21 16H17" stroke="black" stroke-width="2" stroke-linecap="round" stroke-linejoin="round"/>
<path d="M11 3H9" stroke="black" stroke-width="2" stroke-linecap="round" stroke-linejoin="round"/>
</svg>
