<svg width="1269" height="263" viewBox="0 0 1269 263" fill="none" xmlns="http://www.w3.org/2000/svg">
<path d="M150.925 5.28271V257.674H85.2832V151.661H65.6414V257.674H0V5.28271H65.6414V95.5497H85.2832V5.28271H150.925Z" fill="black"/>
<path d="M317.134 5.28271L269.267 166.322V257.674H208.46V166.322L162.302 5.28271H222.602C232.025 54.5482 237.337 87.7054 238.538 104.74C242.171 77.806 248.265 44.6632 256.819 5.28271H317.12H317.134Z" fill="black"/>
<path d="M328.352 5.28271H394.456C412.332 5.28271 426.083 6.68658 435.694 9.4943C445.305 12.302 452.528 16.3544 457.362 21.6515C462.197 26.9485 465.468 33.3744 467.19 40.9003C468.898 48.4407 469.767 60.1057 469.767 75.8956V97.8798C469.767 113.988 468.102 125.74 464.773 133.107C461.444 140.488 455.336 146.147 446.449 150.098C437.561 154.049 425.938 156.017 411.594 156.017H393.979V257.66H328.337V5.28271H328.352ZM393.993 48.4696V112.7C395.861 112.801 397.482 112.859 398.828 112.859C404.849 112.859 409.047 111.383 411.377 108.416C413.722 105.449 414.88 99.2981 414.88 89.9342V69.2091C414.88 60.5833 413.534 54.9679 410.827 52.3773C408.12 49.7866 402.504 48.4841 393.993 48.4841V48.4696Z" fill="black"/>
<path d="M983.507 153.079C983.507 178.435 982.913 196.396 981.712 206.947C980.511 217.497 976.776 227.136 970.48 235.863C964.198 244.591 955.687 251.292 944.99 255.981C934.279 260.655 921.817 263 907.574 263C893.331 263 881.925 260.786 871.171 256.371C860.416 251.957 851.761 245.329 845.218 236.5C838.661 227.672 834.768 218.047 833.523 207.656C832.278 197.264 831.656 179.072 831.656 153.093V109.907C831.656 84.5502 832.249 66.5894 833.451 56.0387C834.637 45.4881 838.386 35.8492 844.683 27.1221C850.965 18.3949 859.461 11.694 870.172 7.01932C880.883 2.3446 893.346 0 907.589 0C921.093 0 933.237 2.21434 943.992 6.62855C954.746 11.0428 963.402 17.6713 969.944 26.4997C976.501 35.3281 980.395 44.9526 981.64 55.344C982.884 65.7355 983.507 83.9278 983.507 109.907V153.093V153.079ZM917.865 70.1353C917.865 58.3978 917.214 50.8864 915.911 47.6011C914.609 44.3302 911.931 42.6948 907.878 42.6948C904.448 42.6948 901.828 44.0263 900.004 46.6748C898.18 49.3234 897.283 57.1387 897.283 70.1353V187.987C897.283 202.648 897.876 211.679 899.078 215.109C900.264 218.54 903.058 220.247 907.415 220.247C911.772 220.247 914.739 218.279 915.984 214.328C917.228 210.377 917.851 200.97 917.851 186.106V70.1353H917.865Z" fill="black"/>
<path d="M1140.19 5.28223V55.7924H1101.21V257.688H1035.57V55.7924H996.751V5.28223H1140.19Z" fill="black"/>
<path d="M1155.17 5.28223H1264.63V55.7924H1220.81V103.654H1261.82V151.675H1220.81V207.178H1269V257.688H1155.19V5.28223H1155.17Z" fill="black"/>
<path d="M605.855 132.195L630.563 5.23926L523.669 5.28268H488.641V257.674H554.283V143.874C563.329 143.874 568.916 145.481 571.044 148.708C573.172 151.936 574.243 160.301 574.243 173.804V257.674H630.244L645.877 132.18H605.87L605.855 132.195ZM574.229 81.8294C574.229 92.9445 572.752 99.5152 569.785 101.556C566.818 103.582 561.65 104.595 554.268 104.595V48.4696C561.853 48.4696 567.078 49.7142 569.944 52.2035C572.81 54.6929 574.229 59.9465 574.229 67.95V81.8294Z" fill="black"/>
<path d="M752.278 5.28281V118.938L715.484 5.28281H708.102V5.21045L670.295 5.22492L653.823 77.1259L654.055 78.1245H693.512L630.577 257.689H635.195H660.612H708.218H715.484V142.948L749.629 257.689H807.165V5.28281H752.278Z" fill="black"/>
</svg>
