<svg width="1526" height="749" viewBox="0 0 1526 749" fill="none" xmlns="http://www.w3.org/2000/svg">
<path d="M32 473C9.28392 457.981 5.27584 443.756 16 406.5C61.168 286.951 109.111 225.574 231.5 125.5C161.575 254.525 113.062 362.646 10.5 617M428.5 10.5C332.039 220.966 263.034 373.142 217.287 479M217.287 479C163.795 602.781 142.103 663.234 145.5 679.5C171.041 519.099 170.402 442.265 97 368.5C128.656 382.752 162.728 421.537 217.287 479ZM303 479C305.921 484.907 296 499.5 293.5 515C292 556.5 327 535.5 388 439.5C272.228 631.894 214.084 728.214 205 738.5M398 487.5C409.033 478.68 413.933 474.147 420 467C415.981 488.865 409.036 512.397 400.325 537.5M332.5 716.5C355.707 650.428 381.946 590.466 400.325 537.5M400.325 537.5C419.165 519.389 410.598 525.752 433.5 498.5C456.019 471.704 487 419 502.5 425C522.297 435.164 487.461 468.1 433.5 522C419.493 531.253 412.207 534.725 400.325 537.5ZM537.5 449C542.551 456.108 543.025 460.043 541.5 467C536.807 490.528 527.062 510.925 509 548C546.419 458.16 562.47 432.922 585 419C590.834 415.597 597.5 417.5 596 428C594.5 438.5 590.5 449 590.5 449M627.5 434.5C631.772 440.99 625.187 461.688 613.47 491.5M585 561.5C595.635 535.139 605.686 511.308 613.47 491.5M613.47 491.5C648.561 441.819 657 428 664.5 430.5C676.5 434.5 652.33 493.783 638 548C654.282 521.131 710 435.876 722 432.5C737.619 428.105 741.039 446.108 742.5 496C742.5 518.5 732 538.053 710 545C700.5 548 693.933 537.867 695.5 511C704.367 463.328 712.084 447.544 728 428C776.095 422.649 802.244 417.83 847 405C854.915 403.018 856.847 397.8 854.5 379C851.055 365.087 847.896 359.196 840.5 351.5C837 347.858 833.672 351.509 831 359.5C760.185 529.462 759 534.5 758 541L754 565.5C751.908 582.835 755.946 583.711 769.5 574.5C801.522 552.707 819.341 540.239 853 521.5C891.351 499.579 912.907 486.127 951.5 459C968.768 446.889 966 437.545 946.5 444C921.347 452.326 910.71 459.483 893.5 473.5C873.855 489.5 866.698 501.844 853 529C844.677 545.5 854.629 560.738 879.5 576C894.5 585.205 924.969 584.452 982 563M1254.5 215C1171.68 290.329 1123 337 1053 418.5C1040.55 433 1043.98 447.581 1067.5 444C1128.98 432.086 1197 424 1218.5 424C1240 424 1242.32 424.794 1231 439.5C1227.54 444 1105.75 529.605 1033 583C1112.95 533.947 1356.5 434 1503 401.5C1519.5 397.84 1520.14 394.481 1503 388C1481 379.683 1407.34 369.909 1332 366.5C1316.5 366.5 1283.45 363.556 1258 361C1245.5 359.744 1235.76 347.223 1260 334.5C1320 303.006 1379.5 270 1411.5 242.5C1428 228.32 1425.5 219 1409.5 217C1358.5 210.625 1349.5 210.5 1302 215C1274.5 217.605 1243.76 223.251 1229.5 225.5" stroke="black" stroke-width="20" stroke-linecap="round" stroke-linejoin="round"/>
</svg>
