<svg width="1526" height="748" viewBox="0 0 1526 748" fill="none" xmlns="http://www.w3.org/2000/svg">
<path d="M32 472.5C9.28392 457.481 5.27584 443.256 16 406C61.168 286.451 109.111 225.074 231.5 125C161.575 254.025 113.062 362.146 10.5 616.5M428.5 10C332.039 220.466 263.034 372.642 217.287 478.5M217.287 478.5C163.795 602.281 142.103 662.734 145.5 679C171.041 518.599 170.402 441.765 97 368C128.656 382.252 162.728 421.037 217.287 478.5ZM303 478.5C305.921 484.407 296 499 293.5 514.5C292 556 327 535 388 439C272.228 631.394 214.084 727.714 205 738M398 487C409.033 478.18 413.933 473.647 420 466.5C415.981 488.365 409.036 511.897 400.325 537M332.5 716C355.707 649.928 381.946 589.966 400.325 537M400.325 537C419.165 518.889 410.598 525.252 433.5 498C456.019 471.204 487 418.5 502.5 424.5C522.297 434.664 487.461 467.6 433.5 521.5C419.493 530.753 412.207 534.225 400.325 537ZM537.5 448.5C542.551 455.608 543.025 459.543 541.5 466.5C536.807 490.028 527.062 510.425 509 547.5C546.419 457.66 562.47 432.422 585 418.5C590.834 415.097 597.5 417 596 427.5C594.5 438 590.5 448.5 590.5 448.5M627.5 434C631.772 440.49 625.187 461.188 613.47 491M585 561C595.635 534.639 605.686 510.808 613.47 491M613.47 491C648.561 441.319 657 427.5 664.5 430C676.5 434 652.33 493.283 638 547.5C654.282 520.631 710 435.376 722 432C737.619 427.605 741.039 445.608 742.5 495.5C742.5 518 732 537.553 710 544.5C700.5 547.5 693.933 537.367 695.5 510.5C704.367 462.828 712.084 447.044 728 427.5C776.095 422.149 802.244 417.33 847 404.5C854.915 402.518 856.847 397.3 854.5 378.5C851.055 364.587 847.896 358.696 840.5 351C837 347.358 833.672 351.009 831 359C760.185 528.962 759 534 758 540.5L754 565C751.908 582.335 755.946 583.211 769.5 574C801.522 552.207 819.341 539.739 853 521C891.351 499.079 912.907 485.627 951.5 458.5C968.768 446.389 966 437.045 946.5 443.5C921.347 451.826 910.71 458.983 893.5 473C873.855 489 866.698 501.344 853 528.5C844.677 545 854.629 560.238 879.5 575.5C894.5 584.705 924.969 583.952 982 562.5M1254.5 214.5C1171.68 289.829 1123 336.5 1053 418C1040.55 432.5 1043.98 447.081 1067.5 443.5C1128.98 431.586 1197 423.5 1218.5 423.5C1240 423.5 1242.32 424.294 1231 439C1227.54 443.5 1105.75 529.105 1033 582.5C1112.95 533.447 1356.5 433.5 1503 401C1519.5 397.34 1520.14 393.981 1503 387.5C1481 379.183 1407.34 369.409 1332 366C1316.5 366 1283.45 363.056 1258 360.5C1245.5 359.244 1235.76 346.723 1260 334C1320 302.506 1379.5 269.5 1411.5 242C1428 227.82 1425.5 218.5 1409.5 216.5C1358.5 210.125 1349.5 210 1302 214.5C1274.5 217.105 1243.76 222.751 1229.5 225" stroke="white" stroke-width="20" stroke-linecap="round" stroke-linejoin="round"/>
</svg>
